<svg width="1200" height="1200" viewBox="0 0 1200 1200" fill="none" xmlns="http://www.w3.org/2000/svg">
<path d="M603.253 390.178V430.411H420.675L420.405 430.149L420.144 430.411H62.7779C62.6052 430.411 62.4397 430.48 62.3176 430.602C62.1955 430.724 62.1269 430.889 62.1269 431.062V608.765H4.68628V612.671H62.1269V788.143C62.1269 788.316 62.1955 788.481 62.3176 788.603C62.4397 788.725 62.6052 788.794 62.7779 788.794H239.375V868.855H243.281V788.794H418.452V789.447H419.487L420.398 790.36L421.341 789.447H422.358V788.794H603.249V817.353H607.155V788.794H788.814V789.447H789.831L790.775 790.36L791.685 789.447H792.72V788.794H967.789V827.748H971.694V788.794H1148.4C1148.58 788.794 1148.74 788.725 1148.86 788.603C1148.99 788.481 1149.05 788.315 1149.05 788.143V612.671H1195.31V608.765H1149.05V431.062C1149.05 430.889 1148.99 430.724 1148.86 430.602C1148.74 430.48 1148.58 430.411 1148.4 430.411H971.694V430.289H967.789V430.411H791.042L790.78 430.149L790.51 430.411H607.163V390.178H603.253ZM64.3406 431.713H239.372V607.11L64.3406 431.713ZM243.281 431.713H418.453V432.092L243.281 606.992V431.713ZM422.362 431.713H603.253V607.082L422.362 432.041V431.713ZM607.162 431.713H788.822V432.046L607.162 607.828V431.713ZM792.722 431.713H967.791V606.885L792.722 432.088V431.713ZM971.691 431.713H1146.83L971.691 607.223V431.713ZM63.4218 432.636L239.175 608.764H63.4218V432.636ZM1147.73 432.636V608.764H971.981L1147.73 432.636ZM422.344 433.857L603.094 608.766H422.344V433.857ZM788.794 433.857V608.766H608.044L788.794 433.857ZM418.434 433.933V608.758H243.337L418.434 433.933ZM792.703 433.933L967.772 608.73V608.762H792.703V433.933ZM63.4125 612.667H237.581L63.4125 786.573V612.667ZM244.903 612.667H418.434V786.564L244.903 612.667ZM422.344 612.667H602.137L422.344 786.648V612.667ZM609.009 612.667H788.803V786.648L609.009 612.667ZM792.712 612.667H966.244L792.712 786.564V612.667ZM971.681 612.667H971.719L1146.81 787.492H971.672L971.681 612.667ZM973.566 612.667H1147.73V786.573L973.566 612.667ZM607.144 612.677L787.8 787.493H607.144V612.677ZM239.362 612.736V787.486H64.3405L239.362 612.736ZM243.268 612.865L417.531 787.484H243.268V612.865ZM967.778 612.972V787.488H793.628L967.778 612.972ZM603.24 613.42V787.485H423.353L603.24 613.42Z" fill="#E5E5E5"/>
<path d="M605.213 482.737C601.83 482.737 598.447 484.026 595.87 486.602C590.902 491.57 590.739 499.524 595.349 504.707L278.221 684.97L278.559 685.54C298.781 719.693 323.476 751.01 354.075 778.572L354.563 779.012L354.998 778.521L596.366 505.737C601.548 510.426 609.563 510.288 614.558 505.292C619.711 500.139 619.711 491.763 614.558 486.61C611.981 484.033 608.595 482.737 605.213 482.737ZM605.213 484.032C608.259 484.032 611.304 485.195 613.632 487.523C618.288 492.179 618.288 499.709 613.632 504.364C608.976 509.02 601.446 509.02 596.791 504.364C592.135 499.708 592.135 492.179 596.791 487.523C599.119 485.195 602.166 484.032 605.213 484.032ZM1058.39 488.029V489.331H1072.92V779.122H1058.39V780.423H1088.76V779.122H1074.23V489.331H1088.76V488.029H1058.39ZM180.225 492.838L179.574 492.866H179.546C179.326 492.875 179.105 492.886 178.885 492.898L178.272 492.934V531.507L178.992 531.431C179.184 531.41 179.38 531.397 179.574 531.395C182.923 531.396 185.626 534.098 185.626 537.447C185.626 540.796 182.926 543.498 179.577 543.499C179.38 543.499 179.182 543.488 178.987 543.468L178.272 543.397V581.977L178.895 582.005C179.115 582.014 179.336 582.022 179.556 582.028H179.574C204.188 582.028 224.156 562.061 224.156 537.447C224.157 513.056 204.532 493.288 180.226 492.931L180.225 492.838ZM179.584 494.167C203.49 494.173 222.854 513.54 222.854 537.447C222.854 561.356 203.488 580.724 179.58 580.727C179.581 580.727 179.578 580.727 179.58 580.727L179.574 544.801C183.628 544.801 186.928 541.501 186.928 537.447C186.928 533.393 183.628 530.093 179.574 530.093V494.17C179.578 494.17 179.58 494.168 179.584 494.167ZM741.897 495.963V495.996C728.942 496.344 718.525 506.944 718.525 519.982C718.525 533.021 728.942 543.621 741.897 543.969V671.432C741.878 671.432 741.859 671.429 741.841 671.429C728.581 671.429 717.821 682.191 717.821 695.449C717.821 708.708 728.582 719.471 741.841 719.471C755.1 719.471 765.863 708.708 765.863 695.449C765.863 682.649 755.822 672.206 743.199 671.498V543.969C756.154 543.621 766.568 533.021 766.568 519.983C766.568 506.944 756.154 496.344 743.199 495.996V495.963L741.897 495.963ZM741.897 497.298V542.667C729.647 542.32 719.827 532.317 719.827 519.982C719.827 507.647 729.646 497.645 741.897 497.298ZM743.199 497.298C755.449 497.645 765.266 507.648 765.266 519.982C765.266 532.318 755.449 542.32 743.199 542.667V497.298ZM593.049 507.513L354.474 777.138C324.38 749.931 300.025 719.075 280.034 685.427L593.049 507.513ZM301.617 515.513V545.877H302.919V531.347H364.464V545.877H365.766V515.513H364.464V530.045H302.919V515.513H301.617ZM534.999 634.622V635.924H549.531V730.321H534.999V731.623H565.363V730.321H550.833V635.924H565.363V634.622H534.999ZM741.839 672.727C741.858 672.727 741.877 672.729 741.896 672.729V718.162C741.877 718.162 741.858 718.165 741.839 718.165C729.284 718.165 719.122 708 719.122 695.445C719.122 682.89 729.284 672.727 741.839 672.727ZM743.197 672.795C755.116 673.5 764.56 683.348 764.56 695.444C764.56 707.541 755.116 717.391 743.197 718.096V672.795ZM867.35 676.879V707.244H868.652V692.711H981.368V707.244H982.67V676.879H981.368V691.409H868.652V676.879H867.35Z" fill="#D8D8D8"/>
<path d="M760.003 422.925C759.071 422.916 758.143 422.921 757.221 422.935C743.015 423.16 712.578 423.103 685.32 435.441C658.061 447.779 634.094 473.349 634.094 522.138C634.094 542.761 640.981 560.585 651.782 575.855H434.178V477.315H577.035V427.152H376.738V477.315H376.753V575.855H376.738V626.021H376.753V742.796L343.192 742.595L296.749 742.809L224.046 629.859C241.087 622.832 257.764 612.722 270.601 598.558C284.562 583.153 293.911 563.025 293.911 538.12V530.956C293.911 494.511 280.012 468.367 257.347 451.698C234.682 435.03 203.678 427.663 169.217 426.877H58.5916V477.607H58.8743V596.745H58.592V644.101H58.8743V792.732H116.302V643.951L174.056 643.788L253.345 772.778L253.456 772.928C260.171 781.82 274.126 801.562 296.68 815.781L298.59 816.986L344.168 792.948L380.67 792.73H577.02V740.596H434.174V626.015H716.633C716.737 626.064 716.814 626.101 716.925 626.152C734.424 634.153 755.663 641.392 772.197 651.823C788.73 662.253 800.293 675.155 800.293 695.654C800.293 717.717 790.337 729.27 776.303 736.281C762.268 743.293 743.927 745.029 728.828 745.029H728.802C699.861 745.208 665.819 732.913 636.75 723.206L631.609 721.489V776.646L633.895 777.689C662.427 790.696 704.689 795.772 728.91 794.851C746.283 794.841 778.012 791.44 806.02 777.422C834.065 763.385 858.374 737.957 858.374 695.654C858.374 662.916 846.052 639.443 828.811 622.643C811.571 605.844 789.6 595.538 769.982 587.895L769.969 587.889C762.529 585.02 748.416 579.385 734.385 571.748C720.375 564.121 706.523 554.37 699.601 544.148C695.293 537.154 692.636 529.365 692.17 522.007C692.212 499.7 702.609 487.67 716.073 480.573C729.565 473.462 746.369 471.954 757.341 472.746C779.423 474.34 817.464 486.797 829.631 491.993L833.504 493.646L839.137 477.1H991.424V792.728H1048.85V477.1H1152.08V427.377H1048.85V427.155H991.424V427.377H792.983C781.962 424.716 770.884 423.017 759.995 422.919L760.003 422.925ZM759.932 430.736C770.242 430.829 780.939 432.448 791.71 435.082L792.168 435.194H999.252V434.973H1041.06V435.194H1144.29V469.294H1041.06V784.922H999.252V469.294H833.559L828.783 483.328C813.433 477.239 780.457 466.587 757.921 464.961C745.727 464.08 727.848 465.551 712.447 473.667C697.047 481.784 684.366 497.203 684.366 522.137V522.254L684.374 522.374C684.913 531.315 688.055 540.317 693.019 548.346L693.06 548.413L693.103 548.477C701.376 560.733 716.122 570.697 730.666 578.614C745.21 586.531 759.624 592.273 767.171 595.184C786.4 602.676 807.377 612.657 823.373 628.244C839.372 643.833 850.577 664.85 850.577 695.66C850.577 735.032 828.896 757.25 802.537 770.443C776.177 783.635 745.146 787.051 728.842 787.051H728.766L728.692 787.053C706.596 787.904 666.064 782.91 639.436 771.493V732.346C667.269 741.734 699.491 753.029 728.868 752.847C744.527 752.845 763.858 751.245 779.809 743.276C795.769 735.302 808.119 720.216 808.119 695.661C808.119 672.133 794.064 656.377 776.379 645.221C758.694 634.064 737.111 626.791 720.189 619.055C719.893 618.92 719.549 618.754 719.157 618.572L718.376 618.211H426.373V748.411H569.22V784.921H380.651L342.215 785.15L299.032 807.923C279.186 794.83 266.524 777.269 259.804 768.362L178.419 635.968L108.496 636.161V784.924H66.6908V636.293H66.4085V604.56H66.6908V469.794H66.4085V434.688H169.046C202.493 435.45 231.93 442.696 252.726 457.99C273.523 473.285 286.106 496.454 286.106 530.955V538.118C286.106 561.092 277.691 579.109 264.82 593.311C251.949 607.513 234.524 617.783 216.824 624.481L212.326 626.183C239.164 667.594 265.796 709.14 292.504 750.637L343.194 750.403L384.572 750.649V618.209H384.557V583.667H384.572V469.498H384.557V434.958H569.235V469.498H426.378V583.667H667.56L662.319 577.281C649.674 561.877 641.912 543.74 641.912 522.137C641.912 475.833 663.304 453.979 688.545 442.555C713.787 431.131 742.991 430.973 757.35 430.746C758.214 430.732 759.07 430.729 759.932 430.736ZM108.491 469.797V604.563H155.895C175.828 604.563 196.784 601.638 213.203 591.749C229.623 581.861 241.081 564.558 241.081 538.125V530.962C241.081 504.198 226.046 488.272 209.804 479.856C193.562 471.439 176.263 469.801 169.129 469.801L108.491 469.797ZM116.303 477.609H169.128C174.944 477.609 191.668 479.25 206.211 486.786C220.754 494.322 233.269 507.024 233.269 530.958V538.122C233.269 562.387 223.624 576.35 209.173 585.053C194.721 593.756 175.039 596.747 155.894 596.747H116.302L116.303 477.609Z" fill="#CF1C1C"/>
<path d="M113.194 266.391C112.848 266.391 112.517 266.528 112.273 266.772C112.029 267.016 111.892 267.347 111.892 267.693V293.421C111.892 294.804 111.978 296.549 112.143 298.68C112.214 299.579 112.285 300.08 112.355 300.821C111.329 299.655 110.401 298.417 109.128 297.436C107.069 295.812 104.634 294.533 101.847 293.594C99.0127 292.639 95.7533 292.178 92.0731 292.178C83.326 292.178 76.1159 295.177 70.7872 301.108C65.4141 307.049 62.8179 315.746 62.8179 327.002C62.8179 338.139 65.3509 346.741 70.6016 352.606C70.6007 352.605 70.6024 352.607 70.6016 352.606C75.8562 358.428 83.0701 361.359 91.8901 361.359C95.6503 361.359 98.9484 360.898 101.787 359.942C101.791 359.941 101.794 359.941 101.798 359.94C104.624 358.962 107.079 357.644 109.139 355.978C110.573 354.84 111.615 353.476 112.709 352.146L113.881 359.103C113.933 359.407 114.09 359.682 114.325 359.881C114.56 360.08 114.858 360.189 115.166 360.189H123.417C123.762 360.189 124.094 360.052 124.338 359.808C124.582 359.563 124.719 359.232 124.719 358.887V267.693C124.719 267.347 124.582 267.016 124.338 266.772C124.094 266.528 123.762 266.391 123.417 266.391L113.194 266.391ZM151.769 269.323C149.745 269.323 147.903 269.967 146.475 271.232C144.978 272.555 144.311 274.596 144.311 277.012C144.311 279.393 144.983 281.424 146.457 282.777C146.462 282.782 146.467 282.787 146.472 282.792C147.901 284.058 149.744 284.704 151.769 284.704C153.719 284.704 155.514 284.05 156.931 282.799C158.489 281.46 159.23 279.406 159.23 277.012C159.23 274.586 158.493 272.524 156.918 271.217C155.503 269.973 153.714 269.323 151.769 269.323ZM355.853 290.861C350.297 290.861 345.493 291.742 341.466 293.556C337.446 295.366 334.299 298.053 332.148 301.558C329.991 305.036 328.937 309.224 328.937 314.023C328.937 318.578 330.094 322.668 332.415 326.171C332.419 326.176 332.422 326.181 332.426 326.186C334.327 328.967 336.845 330.953 339.686 332.451C337.671 333.8 335.938 335.199 334.752 336.726C334.754 336.725 334.751 336.727 334.752 336.726C333.227 338.706 332.446 341.083 332.446 343.678C332.446 345.972 333.171 348.097 334.572 349.875C334.576 349.88 334.58 349.885 334.585 349.89C335.325 350.799 336.164 351.578 337.069 352.255C333.474 353.371 330.308 354.945 328.001 357.374C327.999 357.376 327.996 357.379 327.994 357.381C325.117 360.457 323.64 364.273 323.64 368.585C323.64 374.615 326.33 379.536 331.429 382.859C331.428 382.858 331.43 382.86 331.429 382.859C336.539 386.223 343.635 387.82 352.651 387.82C364.289 387.82 373.306 385.926 379.695 381.941C386.08 377.957 389.418 371.966 389.418 364.484C389.418 358.556 387.248 353.776 382.99 350.608C378.777 347.444 372.853 345.952 365.334 345.952H353.449C351.385 345.952 349.647 345.798 348.249 345.512C346.895 345.196 345.951 344.723 345.352 344.187C344.844 343.698 344.592 343.129 344.592 342.155C344.592 340.745 344.993 339.594 345.841 338.524C346.711 337.475 348.079 336.464 349.818 335.516C351.651 335.78 353.463 335.956 355.237 335.956C363.405 335.956 369.998 334.018 374.842 330.031C374.84 330.032 374.843 330.03 374.842 330.031C379.675 326.01 382.152 320.447 382.152 313.731C382.152 310.977 381.719 308.429 380.835 306.115C380.25 304.584 379.407 303.39 378.608 302.138L389.13 300.897C389.447 300.859 389.738 300.707 389.95 300.469C390.162 300.231 390.279 299.924 390.28 299.605V293.335C390.28 292.99 390.142 292.659 389.898 292.414C389.654 292.17 389.323 292.033 388.978 292.033H365.947C365.11 291.806 364.192 291.613 363.14 291.463C361.986 291.261 360.774 291.122 359.509 291.041C358.292 290.923 357.072 290.861 355.853 290.861ZM206.622 291.095C202.166 291.095 197.906 291.636 193.85 292.722C189.842 293.795 186.274 295.092 183.147 296.62C182.848 296.767 182.616 297.023 182.5 297.335C182.384 297.647 182.391 297.992 182.522 298.299L185.659 305.683C185.728 305.844 185.827 305.989 185.953 306.11C186.078 306.232 186.226 306.327 186.389 306.389C186.552 306.452 186.725 306.482 186.9 306.476C187.074 306.471 187.245 306.43 187.404 306.357C190.221 305.055 193.202 303.923 196.35 302.962C199.424 302.025 202.658 301.554 206.069 301.554C210.413 301.554 213.584 302.598 215.795 304.564C217.898 306.434 219.114 309.902 219.114 315.255V317.93L208.726 318.349C197.685 318.667 189.35 320.534 183.692 324.18C178.046 327.818 175.09 333.276 175.09 340.045C175.09 344.488 176.036 348.275 178.009 351.305C178.011 351.309 178.014 351.313 178.017 351.318C179.999 354.295 182.727 356.545 186.098 358.003C186.096 358.002 186.1 358.004 186.098 358.003C189.485 359.45 193.325 360.159 197.574 360.159C201.561 360.159 204.959 359.766 207.791 358.936C207.795 358.936 207.798 358.935 207.801 358.934C210.643 358.073 213.171 356.811 215.356 355.147C215.361 355.144 215.365 355.141 215.369 355.137C217.024 353.846 218.565 352.138 220.099 350.405L221.668 357.952C221.729 358.245 221.889 358.508 222.121 358.697C222.353 358.886 222.643 358.989 222.942 358.99H230.393C230.738 358.99 231.069 358.852 231.313 358.608C231.557 358.364 231.694 358.033 231.695 357.688V314.025C231.695 306.26 229.66 300.331 225.406 296.581C221.173 292.848 214.853 291.095 206.622 291.095ZM285.127 292.178C281.974 292.178 278.954 292.608 276.08 293.465C273.204 294.283 270.585 295.515 268.248 297.162C266.548 298.332 265.131 299.792 263.859 301.378L262.707 294.441C262.656 294.137 262.5 293.861 262.264 293.662C262.029 293.462 261.731 293.353 261.423 293.353H253.171C252.826 293.353 252.495 293.49 252.251 293.734C252.006 293.978 251.869 294.309 251.869 294.655V358.888C251.869 359.233 252.006 359.564 252.251 359.808C252.495 360.052 252.826 360.189 253.171 360.189H263.394C263.739 360.189 264.07 360.052 264.314 359.808C264.558 359.564 264.696 359.233 264.696 358.888V325.245C264.696 317.759 266.19 312.215 268.988 308.508C271.717 304.893 276.474 302.988 283.711 302.988C288.789 302.988 292.298 304.239 294.531 306.571C294.534 306.573 294.536 306.576 294.539 306.578C296.82 308.922 298.051 312.543 298.051 317.686V358.888C298.051 359.233 298.188 359.564 298.432 359.809C298.676 360.053 299.007 360.19 299.352 360.19H309.45C309.796 360.19 310.127 360.053 310.371 359.809C310.615 359.564 310.752 359.233 310.752 358.888V317.043C310.752 308.586 308.628 302.181 304.171 298.146C299.755 294.113 293.333 292.178 285.127 292.178ZM430.712 292.3C424.091 292.3 418.292 293.649 413.39 296.391C408.529 299.094 404.758 303.083 402.15 308.252C399.533 313.397 398.254 319.585 398.254 326.771C398.254 332.167 399.009 337.027 400.545 341.334C400.546 341.338 400.547 341.341 400.548 341.344C402.12 345.63 404.327 349.292 407.169 352.284C407.168 352.282 407.171 352.286 407.169 352.284C410.044 355.265 413.456 357.569 417.351 359.158C417.356 359.16 417.361 359.163 417.366 359.165C421.307 360.715 425.623 361.482 430.281 361.482C435.258 361.482 439.755 360.717 443.746 359.165C443.744 359.166 443.747 359.164 443.746 359.165C447.766 357.578 451.226 355.276 454.067 352.284C456.914 349.287 459.085 345.618 460.574 341.325C462.067 337.021 462.799 332.165 462.799 326.772C462.799 319.618 461.476 313.441 458.771 308.293C456.123 303.135 452.337 299.134 447.486 296.395C442.672 293.655 437.053 292.3 430.712 292.3ZM146.537 293.353C146.192 293.353 145.86 293.49 145.616 293.734C145.372 293.978 145.235 294.309 145.235 294.655V369.26C145.235 372.975 144.398 375.243 143.101 376.36C141.641 377.617 139.737 378.272 137.177 378.272C135.596 378.272 134.194 378.159 132.973 377.941C132.96 377.938 132.948 377.936 132.935 377.934C131.685 377.748 130.455 377.471 129.245 377.099C129.051 377.04 128.845 377.027 128.644 377.061C128.444 377.095 128.254 377.176 128.09 377.297C127.926 377.418 127.793 377.576 127.702 377.757C127.61 377.939 127.562 378.14 127.562 378.343V386.256C127.562 386.528 127.647 386.793 127.806 387.013C127.964 387.234 128.187 387.4 128.444 387.487C129.671 387.904 131.087 388.25 132.691 388.532C134.358 388.865 136.259 389.023 138.41 389.023C142.75 389.023 146.422 388.256 149.379 386.635C152.313 385.028 154.544 382.646 155.965 379.604C157.379 376.617 158.061 373.078 158.061 369.026V294.655C158.061 294.31 157.923 293.978 157.679 293.734C157.435 293.49 157.104 293.353 156.759 293.353L146.537 293.353ZM355.487 300.674C360.156 300.674 363.463 301.813 365.663 303.941C365.666 303.944 365.669 303.946 365.671 303.949C367.859 306.031 369.023 309.21 369.023 313.79C369.023 318.045 367.894 321.044 365.732 323.102C363.58 325.15 360.286 326.26 355.609 326.26C351.104 326.26 347.843 325.162 345.593 323.089C343.345 321.019 342.196 318.089 342.196 313.965C342.196 309.427 343.358 306.218 345.562 304.05C347.823 301.829 351.04 300.674 355.487 300.674ZM93.4931 302.871C100.752 302.871 105.369 304.903 107.916 308.839C107.918 308.841 107.92 308.844 107.922 308.847C110.591 312.912 112.018 318.933 112.018 326.947V328.704C112.018 336.232 110.54 341.737 107.794 345.317C105.106 348.822 100.483 350.667 93.4939 350.667C87.471 350.667 83.2648 348.722 80.3904 344.767C77.5348 340.776 76.0166 334.958 76.0166 327.24C76.0166 319.479 77.547 313.5 80.4691 309.218C80.4683 309.22 80.47 309.216 80.4691 309.218C83.3616 304.943 87.531 302.871 93.4931 302.871ZM430.468 303.107C435.045 303.107 438.646 304.078 441.377 305.93C444.145 307.807 446.184 310.451 447.541 313.993C447.54 313.991 447.542 313.995 447.541 313.993C448.905 317.517 449.611 321.775 449.611 326.771C449.611 331.807 448.906 336.125 447.538 339.732C446.181 343.311 444.124 345.993 441.313 347.91C441.316 347.908 441.311 347.911 441.313 347.91C438.578 349.8 435.019 350.788 430.532 350.788C426.001 350.788 422.427 349.803 419.694 347.915C416.923 346 414.881 343.315 413.523 339.732C412.156 336.125 411.453 331.808 411.453 326.771C411.453 319.141 413.038 313.324 416.06 309.205C416.061 309.204 416.064 309.198 416.066 309.197C419.085 305.143 423.726 303.107 430.468 303.107ZM218.987 327.391V331.958C218.987 338.026 217.22 342.303 213.731 345.196C210.171 348.148 205.611 349.644 199.846 349.644C196.185 349.644 193.395 348.82 191.33 347.269C189.339 345.772 188.34 343.558 188.34 340.162C188.34 336.297 189.792 333.559 192.935 331.457C195.999 329.409 201.75 328.058 210.054 327.75C210.053 327.75 210.054 327.75 210.054 327.75L218.987 327.391ZM350.124 357.639H361.824C365.213 357.639 368.051 357.874 370.315 358.32C370.322 358.321 370.329 358.322 370.336 358.323C372.527 358.718 374.046 359.48 375.037 360.515C375.979 361.535 376.53 363.112 376.53 365.478C376.53 367.964 375.751 369.975 374.109 371.746C374.102 371.753 374.095 371.76 374.089 371.767C372.501 373.553 369.989 374.999 366.452 376.009C366.447 376.01 366.442 376.012 366.437 376.014C362.958 377.055 358.455 377.6 352.958 377.6C347.392 377.6 343.222 376.682 340.447 375.027C340.444 375.025 340.44 375.024 340.437 375.022C337.674 373.409 336.465 371.328 336.465 368.235C336.465 365.818 337.002 363.915 338.021 362.407C339.097 360.875 340.604 359.714 342.662 358.895C344.733 358.071 347.215 357.639 350.124 357.639ZM519.999 839.157C515.25 839.157 511.142 839.984 507.717 841.698C504.269 843.423 501.601 846.161 499.809 849.779C498.003 853.387 497.146 857.965 497.146 863.49V866.773L486.166 869.736C485.89 869.81 485.645 869.974 485.471 870.201C485.297 870.429 485.202 870.708 485.203 870.994V875.681C485.203 876.026 485.34 876.357 485.584 876.601C485.828 876.845 486.159 876.983 486.505 876.983H497.146V932.295C497.146 932.64 497.283 932.972 497.527 933.216C497.772 933.46 498.103 933.597 498.448 933.597H508.67C509.016 933.597 509.347 933.46 509.591 933.216C509.835 932.972 509.972 932.64 509.972 932.295V876.983H525.479C525.824 876.983 526.155 876.845 526.399 876.601C526.643 876.357 526.781 876.026 526.781 875.681V868.062C526.781 867.717 526.643 867.386 526.399 867.142C526.155 866.898 525.824 866.76 525.479 866.76H509.972V863.373C509.972 858.413 510.898 854.946 512.467 852.919C514.088 850.842 516.495 849.789 520.124 849.789C521.836 849.789 523.502 849.972 525.131 850.341C525.141 850.344 525.152 850.346 525.163 850.349C526.893 850.693 528.432 851.076 529.776 851.49C530.099 851.59 530.448 851.56 530.749 851.408C531.05 851.255 531.281 850.991 531.391 850.672L534.038 842.992C534.094 842.83 534.117 842.658 534.106 842.486C534.095 842.314 534.05 842.147 533.974 841.993C533.898 841.838 533.792 841.701 533.662 841.588C533.533 841.475 533.382 841.389 533.219 841.334C531.513 840.766 529.553 840.264 527.338 839.826C525.103 839.376 522.657 839.157 519.999 839.157ZM1092.88 839.801C1092.53 839.801 1092.2 839.938 1091.96 840.182C1091.71 840.426 1091.58 840.757 1091.58 841.103V932.294C1091.58 932.639 1091.71 932.97 1091.96 933.215C1092.2 933.459 1092.53 933.596 1092.88 933.596H1103.04C1103.38 933.596 1103.72 933.459 1103.96 933.215C1104.2 932.97 1104.34 932.639 1104.34 932.294V909.62L1111.05 903.761L1134.03 933.098C1134.15 933.253 1134.31 933.379 1134.49 933.465C1134.66 933.552 1134.86 933.597 1135.06 933.597H1147.37C1147.62 933.597 1147.86 933.528 1148.06 933.398C1148.27 933.268 1148.44 933.082 1148.54 932.862C1148.65 932.642 1148.69 932.396 1148.67 932.152C1148.64 931.909 1148.54 931.678 1148.39 931.486L1119.98 895.586L1146.33 868.978C1146.51 868.795 1146.63 868.564 1146.68 868.311C1146.73 868.059 1146.7 867.798 1146.6 867.561C1146.5 867.324 1146.34 867.122 1146.12 866.98C1145.91 866.837 1145.66 866.761 1145.4 866.761H1133.39C1133.22 866.761 1133.05 866.795 1132.89 866.862C1132.73 866.929 1132.59 867.027 1132.46 867.15L1110.05 889.888C1110.05 889.894 1110.04 889.9 1110.03 889.906C1108.86 891.145 1107.43 892.763 1105.73 894.768C1105.73 894.772 1105.73 894.776 1105.72 894.781C1104.98 895.688 1104.6 896.127 1104.02 896.83C1104.06 895.963 1104.09 895.235 1104.15 894.272C1104.15 894.273 1104.15 894.272 1104.15 894.272C1104.27 891.99 1104.34 890.054 1104.34 888.457V841.104C1104.34 840.758 1104.2 840.427 1103.96 840.183C1103.71 839.939 1103.38 839.802 1103.04 839.802L1092.88 839.801ZM812.406 864.387C806.175 864.387 800.66 865.812 795.964 868.682C795.965 868.682 795.962 868.683 795.964 868.682C791.316 871.55 787.683 875.674 785.126 880.947C785.126 880.946 785.126 880.947 785.126 880.947C782.603 886.196 781.362 892.378 781.362 899.446C781.362 906.682 782.73 912.888 785.525 918.004C788.305 923.093 792.246 927.014 797.265 929.668C797.269 929.67 797.272 929.672 797.276 929.673C802.33 932.283 808.215 933.569 814.867 933.569C819.486 933.569 823.506 933.236 826.943 932.549C830.403 931.866 833.876 930.782 837.359 929.305C837.594 929.205 837.795 929.038 837.936 928.824C838.077 928.611 838.152 928.36 838.152 928.104V919.55C838.152 919.337 838.099 919.126 837.999 918.938C837.898 918.749 837.753 918.588 837.576 918.469C837.398 918.35 837.194 918.276 836.982 918.255C836.769 918.233 836.554 918.264 836.357 918.345C832.885 919.767 829.545 920.837 826.34 921.562C823.175 922.277 819.493 922.643 815.3 922.643C808.609 922.643 803.647 920.783 800.104 917.119C796.797 913.701 794.992 908.714 794.667 902.096H839.866C840.211 902.096 840.542 901.959 840.786 901.715C841.03 901.47 841.168 901.139 841.168 900.794V894.757C841.168 888.774 840.048 883.481 837.768 878.936C835.489 874.353 832.157 870.748 827.843 868.203C823.509 865.646 818.335 864.387 812.406 864.387ZM988.646 864.387C982.025 864.387 976.224 865.737 971.321 868.479C966.461 871.182 962.69 875.17 960.082 880.339C957.465 885.485 956.186 891.676 956.186 898.861C956.186 904.258 956.943 909.118 958.48 913.425C958.48 913.428 958.481 913.431 958.482 913.435C960.054 917.721 962.261 921.38 965.104 924.372C965.105 924.374 965.107 924.377 965.109 924.38C967.983 927.36 971.39 929.656 975.285 931.245C975.292 931.247 975.298 931.249 975.304 931.25C979.245 932.8 983.559 933.57 988.217 933.57C993.194 933.57 997.691 932.805 1001.68 931.253C1001.68 931.254 1001.68 931.252 1001.68 931.253C1005.7 929.665 1009.16 927.364 1012.01 924.372C1014.85 921.375 1017.02 917.705 1018.51 913.413C1020 909.11 1020.74 904.255 1020.74 898.863C1020.74 891.708 1019.41 885.531 1016.71 880.383C1014.06 875.225 1010.28 871.224 1005.43 868.486C1000.61 865.745 994.986 864.387 988.646 864.387ZM622.112 864.505C617.655 864.505 613.393 865.046 609.337 866.132C605.329 867.205 601.761 868.499 598.634 870.028C598.334 870.174 598.102 870.43 597.986 870.743C597.869 871.056 597.877 871.401 598.008 871.708L601.149 879.093C601.217 879.253 601.317 879.398 601.443 879.519C601.568 879.64 601.716 879.735 601.879 879.798C602.042 879.86 602.215 879.89 602.39 879.884C602.564 879.878 602.735 879.837 602.893 879.764C605.71 878.462 608.689 877.33 611.837 876.37C614.91 875.432 618.147 874.961 621.557 874.961C625.902 874.961 629.073 876.008 631.284 877.974C633.387 879.844 634.602 883.312 634.602 888.664V891.339L624.212 891.759L624.227 891.757C613.178 892.073 604.839 893.942 599.177 897.59C593.531 901.227 590.575 906.683 590.575 913.452C590.575 917.895 591.524 921.683 593.496 924.712C593.499 924.716 593.502 924.72 593.504 924.725C595.487 927.702 598.212 929.952 601.583 931.41C601.581 931.409 601.585 931.411 601.583 931.41C604.97 932.856 608.81 933.569 613.059 933.569C617.046 933.569 620.444 933.173 623.276 932.343C623.28 932.342 623.283 932.342 623.287 932.341C626.128 931.48 628.656 930.218 630.841 928.554C630.846 928.552 630.85 928.549 630.854 928.547C632.51 927.255 634.052 925.544 635.587 923.809L637.153 931.359C637.214 931.652 637.374 931.915 637.606 932.104C637.838 932.293 638.128 932.396 638.427 932.397H645.878C646.223 932.397 646.554 932.259 646.798 932.015C647.042 931.771 647.18 931.44 647.18 931.095V887.432C647.18 879.666 645.145 873.738 640.891 869.987C636.658 866.256 630.343 864.505 622.112 864.505ZM573.716 865.588C570.356 865.588 567.249 866.207 564.442 867.459C564.444 867.458 564.441 867.46 564.442 867.459C561.722 868.692 559.302 870.369 557.223 872.469C557.225 872.468 557.222 872.47 557.223 872.469C555.849 873.831 554.802 875.45 553.696 877.016L552.847 867.94C552.816 867.617 552.667 867.317 552.427 867.099C552.187 866.881 551.874 866.76 551.55 866.76H543.054C542.709 866.76 542.378 866.897 542.134 867.142C541.89 867.386 541.752 867.717 541.752 868.062V932.295C541.752 932.64 541.89 932.971 542.134 933.215C542.378 933.46 542.709 933.597 543.054 933.597H553.335C553.68 933.597 554.011 933.46 554.255 933.215C554.5 932.971 554.637 932.64 554.637 932.295V897.834C554.637 894.648 555.131 891.803 556.094 889.273C556.094 889.274 556.094 889.271 556.094 889.273C557.067 886.679 558.393 884.506 560.071 882.727C560.074 882.724 560.078 882.72 560.081 882.717C561.77 880.89 563.701 879.521 565.915 878.577C565.912 878.578 565.917 878.576 565.915 878.577C568.174 877.593 570.561 877.1 573.101 877.1C574.234 877.1 575.458 877.175 576.77 877.326C578.079 877.477 579.255 877.684 580.3 877.941C580.476 877.985 580.66 877.991 580.84 877.959C581.019 877.928 581.19 877.859 581.341 877.757C581.492 877.655 581.62 877.522 581.716 877.368C581.813 877.214 581.876 877.041 581.902 876.86L583.196 867.836C583.244 867.507 583.163 867.172 582.972 866.9C582.78 866.628 582.492 866.44 582.166 866.374C580.954 866.126 579.591 865.945 578.075 865.825C576.568 865.666 575.108 865.588 573.716 865.588ZM698.141 865.588C695.15 865.588 692.307 865.994 689.63 866.816C686.953 867.638 684.514 868.859 682.34 870.473C680.796 871.619 679.503 873.024 678.33 874.544L677.196 867.843C677.144 867.54 676.987 867.265 676.752 867.067C676.517 866.869 676.219 866.76 675.911 866.76H667.662C667.317 866.76 666.986 866.897 666.742 867.142C666.498 867.386 666.361 867.717 666.361 868.062V932.295C666.361 932.64 666.498 932.971 666.742 933.215C666.986 933.459 667.317 933.597 667.662 933.597H677.882C678.227 933.597 678.558 933.459 678.803 933.215C679.047 932.971 679.184 932.64 679.184 932.295V898.302C679.184 893.368 679.771 889.271 680.895 886.02C680.895 886.021 680.896 886.019 680.895 886.02C682.05 882.765 683.835 880.416 686.289 878.823C688.723 877.243 692.049 876.397 696.354 876.397C699.354 876.397 701.728 876.955 703.53 877.984C703.538 877.989 703.546 877.993 703.555 877.997C705.402 878.997 706.739 880.461 707.664 882.539C707.667 882.545 707.669 882.551 707.672 882.557C708.634 884.636 709.154 887.34 709.154 890.684V932.295C709.154 932.64 709.292 932.971 709.536 933.215C709.78 933.459 710.111 933.596 710.456 933.596H720.615C720.96 933.596 721.291 933.459 721.536 933.215C721.78 932.971 721.917 932.64 721.917 932.295V896.367C721.917 889.556 723.359 884.587 726.052 881.313C728.708 878.082 732.984 876.398 739.272 876.398C743.666 876.398 746.712 877.59 748.767 879.889C748.772 879.894 748.777 879.899 748.782 879.904C750.868 882.163 752.009 885.686 752.009 890.684V932.295C752.009 932.64 752.146 932.971 752.39 933.215C752.635 933.459 752.966 933.597 753.311 933.597H763.409C763.754 933.597 764.085 933.459 764.329 933.215C764.573 932.971 764.711 932.64 764.711 932.295V890.215C764.711 881.852 762.775 875.537 758.656 871.528C754.575 867.519 748.58 865.588 740.935 865.588C736.168 865.588 731.739 866.544 727.702 868.464C727.704 868.462 727.7 868.464 727.702 868.464C727.7 868.464 727.694 868.467 727.692 868.469C724.069 870.159 721.21 872.806 718.952 876.092C717.256 872.837 714.88 870.175 711.608 868.489C707.926 866.532 703.421 865.588 698.141 865.588ZM1067.07 865.588C1063.71 865.588 1060.6 866.207 1057.79 867.459C1057.79 867.458 1057.79 867.46 1057.79 867.459C1055.07 868.692 1052.65 870.369 1050.57 872.469C1050.57 872.468 1050.57 872.47 1050.57 872.469C1049.2 873.83 1048.15 875.449 1047.05 877.013L1046.2 867.94C1046.17 867.617 1046.02 867.317 1045.78 867.099C1045.54 866.881 1045.22 866.76 1044.9 866.76H1036.4C1036.06 866.76 1035.73 866.897 1035.48 867.142C1035.24 867.386 1035.1 867.717 1035.1 868.062V932.295C1035.1 932.64 1035.24 932.971 1035.48 933.216C1035.73 933.46 1036.06 933.597 1036.4 933.597H1046.69C1047.03 933.597 1047.36 933.46 1047.61 933.216C1047.85 932.971 1047.99 932.64 1047.99 932.295V897.834C1047.99 894.648 1048.48 891.803 1049.44 889.273C1049.44 889.274 1049.44 889.271 1049.44 889.273C1050.42 886.679 1051.74 884.505 1053.42 882.727C1053.42 882.724 1053.42 882.72 1053.43 882.717C1055.12 880.89 1057.05 879.521 1059.26 878.577C1059.26 878.578 1059.27 878.576 1059.26 878.577C1061.52 877.593 1063.91 877.1 1066.45 877.1C1067.58 877.1 1068.81 877.175 1070.12 877.326C1071.43 877.477 1072.61 877.684 1073.65 877.941C1073.83 877.985 1074.01 877.991 1074.19 877.959C1074.37 877.928 1074.54 877.859 1074.69 877.757C1074.84 877.655 1074.97 877.522 1075.07 877.368C1075.16 877.214 1075.23 877.041 1075.25 876.86L1076.55 867.836C1076.59 867.507 1076.51 867.172 1076.32 866.9C1076.13 866.628 1075.84 866.44 1075.52 866.374C1074.3 866.126 1072.94 865.945 1071.42 865.825C1069.92 865.666 1068.46 865.588 1067.07 865.588ZM851.947 866.763C851.746 866.763 851.547 866.809 851.366 866.9C851.185 866.99 851.028 867.121 850.907 867.282C850.786 867.443 850.703 867.63 850.667 867.829C850.63 868.027 850.64 868.232 850.696 868.426L869.293 932.658C869.371 932.93 869.535 933.168 869.761 933.338C869.987 933.508 870.261 933.599 870.544 933.599H882.058C882.33 933.599 882.596 933.514 882.817 933.355C883.038 933.196 883.204 932.972 883.291 932.714L895.845 895.523C896.428 893.898 896.951 892.283 897.409 890.696C897.41 890.693 897.411 890.689 897.412 890.686C897.863 889.086 898.272 887.567 898.643 886.119L898.65 886.086C898.927 885.11 899.138 884.258 899.36 883.383C899.591 884.255 899.818 885.104 900.069 886.086C900.074 886.101 900.078 886.115 900.083 886.129C900.493 887.535 900.923 889.018 901.374 890.579C901.379 890.592 901.383 890.605 901.387 890.618C901.881 892.145 902.393 893.711 902.928 895.317L914.933 932.697C915.018 932.959 915.183 933.188 915.405 933.35C915.628 933.512 915.896 933.599 916.171 933.6H928.054C928.336 933.6 928.611 933.508 928.836 933.339C929.062 933.17 929.227 932.932 929.305 932.661L947.963 868.429C948.019 868.234 948.029 868.03 947.993 867.831C947.957 867.632 947.875 867.445 947.753 867.283C947.632 867.121 947.475 866.99 947.294 866.9C947.113 866.81 946.914 866.763 946.711 866.763H936.306C936.022 866.763 935.745 866.857 935.519 867.029C935.292 867.201 935.129 867.442 935.053 867.717L925.201 903.174C925.202 903.171 925.2 903.176 925.201 903.174C924.544 905.599 923.903 907.994 923.286 910.342C923.285 910.349 923.283 910.356 923.281 910.363C922.724 912.637 922.228 914.709 921.786 916.618C921.294 914.71 920.745 912.746 920.133 910.727L920.125 910.704C919.549 908.667 918.951 906.706 918.333 904.822L906.325 867.663C906.241 867.402 906.075 867.174 905.853 867.012C905.63 866.85 905.362 866.763 905.087 866.763H894.067C893.793 866.763 893.527 866.849 893.305 867.009C893.083 867.168 892.917 867.394 892.831 867.653L880.394 904.868C880.394 904.867 880.394 904.869 880.394 904.868C879.937 906.253 879.479 907.736 879.023 909.313C878.569 910.847 878.135 912.4 877.722 913.974C877.719 913.983 877.716 913.991 877.714 913.999C877.458 915.055 877.227 916.022 876.992 917.003C876.963 916.873 876.955 916.788 876.925 916.657C876.511 914.609 875.995 912.45 875.379 910.18L875.371 910.155C874.796 907.848 874.183 905.523 873.525 903.177L863.796 867.719C863.72 867.444 863.556 867.202 863.33 867.029C863.103 866.857 862.825 866.763 862.54 866.763L851.947 866.763ZM812.284 874.961C815.958 874.961 818.842 875.739 821.044 877.206C821.048 877.209 821.053 877.211 821.057 877.214C823.296 878.67 824.94 880.694 826.044 883.411C826.046 883.418 826.049 883.425 826.051 883.431C827.056 885.791 827.571 888.589 827.732 891.698H795.074C795.822 886.593 797.447 882.512 800.173 879.655C803.164 876.52 807.094 874.961 812.284 874.961ZM988.402 875.197C992.979 875.197 996.577 876.168 999.308 878.02C1002.08 879.897 1004.12 882.541 1005.47 886.083C1005.47 886.082 1005.47 886.084 1005.47 886.083C1006.84 889.607 1007.54 893.865 1007.54 898.861C1007.54 903.898 1006.84 908.212 1005.47 911.819C1004.11 915.398 1002.06 918.078 999.245 919.995C999.242 919.996 999.24 919.998 999.237 920C996.501 921.891 992.95 922.878 988.463 922.878C983.933 922.878 980.362 921.889 977.628 920C974.856 918.085 972.812 915.402 971.454 911.819C970.086 908.213 969.384 903.898 969.384 898.861C969.384 891.232 970.969 885.415 973.991 881.295C973.992 881.294 973.995 881.289 973.997 881.288C977.016 877.234 981.66 875.197 988.402 875.197ZM634.487 900.801V905.366C634.487 911.433 632.72 915.711 629.231 918.604C625.671 921.555 621.111 923.052 615.346 923.052C611.685 923.052 608.898 922.228 606.833 920.677C604.841 919.18 603.84 916.968 603.84 913.572C603.84 909.707 605.292 906.966 608.435 904.865C611.499 902.817 617.25 901.469 625.554 901.16C625.553 901.161 625.555 901.159 625.554 901.16L634.487 900.801Z" fill="white" fill-opacity="0.8"/>
</svg>
