<svg width="256" height="256" viewBox="0 0 256 256" fill="none" xmlns="http://www.w3.org/2000/svg">
<g clip-path="url(#clip0_5_41)">
<path d="M33.4933 167.04C29.2213 163.68 24.6666 160.464 21.5573 155.931C15.0079 147.936 9.96795 138.677 6.51728 128.949C4.43195 122.624 3.72261 115.84 1.03461 109.76C-1.77605 105.344 1.51461 100.517 6.35195 99.1093C8.50661 98.6933 12.2933 96.6667 7.72261 98.1173C3.62661 101.125 3.22661 95.3867 7.42928 95.024C10.2986 94.6453 11.3546 92.2933 10.3733 90.1813C7.29595 88.176 17.8399 85.968 12.5333 82.9707C7.00795 77.008 20.2666 75.8613 16.9919 82.6293C16.2079 87.8347 26.2559 81.6747 23.9253 87.6907C26.2933 90.576 32.7999 88.3467 32.6346 92.4C36.0853 92.6347 37.2693 95.5413 40.5119 95.7653C43.8719 97.28 49.9573 98.4747 51.0986 102.261C47.7653 104.901 40.0533 96.8107 39.6799 104.112C40.6879 114.896 40.432 126.011 44.3786 136.277C46.2453 142.496 50.768 147.392 54.8586 152.235C58.768 156.976 64.064 160.32 69.4613 163.131C74.1973 165.365 79.3013 166.843 84.464 167.776C86.5546 166.176 90.2506 160.224 93.52 162.731C93.6746 165.552 87.04 168.624 93.2053 168.315C96.8266 167.221 99.3386 171.115 102.325 167.605C105.072 170.859 113.749 165.525 111.792 172.181C109.147 173.888 105.291 172.859 102.645 175.205C98.2773 173.024 94.7999 177.157 89.9679 176.635C84.5973 177.595 79.136 177.984 73.696 177.995C64.768 177.291 55.6479 176.992 47.1519 173.883C42.3679 172.491 37.6959 169.765 33.4933 167.04ZM41.0346 170.304C45.7066 172.325 50.2773 174.453 55.3973 175.099C63.52 176.229 71.9093 177.968 80.064 176.379C76.3733 174.715 72.56 177.029 68.88 175.189C64.4693 176.139 59.7386 174.949 55.2586 174.363C50.16 172.091 44.6613 170.533 39.8879 167.584C33.9253 165.408 42.9706 170.379 44.5813 170.779C48.3093 172.896 40.4799 169.696 39.3759 168.816C36.2506 167.067 35.8559 167.429 39.0666 169.211C39.7173 169.584 40.3573 169.984 41.0346 170.304ZM32.1439 164.021C36.6719 165.696 32.1226 160.837 30.0479 161.12C29.1306 159.525 26.5333 158.517 28.3626 157.659C25.0719 158.8 24.9173 153.317 23.3706 154.101C19.8879 153.003 22.0159 149.109 17.8719 146.72C17.4933 144.203 13.7546 142.016 12.5599 138.213C12.0319 136.267 8.33595 130.683 10.6079 135.883C12.5439 140.891 15.9466 145.173 18.7786 149.456C20.9759 153.531 23.5786 157.792 27.5839 160.336C28.9333 161.632 30.2346 163.616 32.1439 164.021ZM52.0906 172.443C53.9466 173.611 62.9173 175.008 57.3013 172.923C56.3573 173.12 46.88 170.24 52.0906 172.443ZM31.5946 155.803C33.7706 157.472 40.3679 156.016 34.9279 154.805C32.4479 153.483 26.8693 152.581 30.6719 155.6L31.5946 155.803ZM42.1279 161.381C47.4506 162.885 37.6533 158.016 40.8159 160.827L41.5146 161.141L42.1279 161.381ZM51.3439 166.709C56.384 166.757 46.7946 166.016 51.3439 166.709ZM42.1706 158.565C46.0373 159.061 37.5733 155.936 41.3226 158.288L42.1706 158.565ZM55.6053 166.821C59.2159 164.661 58.0266 171.872 61.728 167.429C65.3813 164.763 58.5706 170.725 63.0773 167.904C66.3359 165.728 71.1413 168.939 74.1813 169.984C76.368 169.877 78.4906 171.872 80.7306 170.656C85.04 169.493 72.2986 168.933 75.6373 166.875C71.6906 168.021 68.7786 165.504 66.8373 162.976C62.4106 161.952 57.296 159.691 55.088 155.776C54.1866 154.304 56.3893 155.984 54.3093 153.579C51.6426 151.205 50.3093 148.512 48.5226 145.632C46.3839 144.491 46.1333 141.131 45.9199 145.52C45.9359 142.752 43.3386 140.891 42.704 141.664C42.6933 138.997 45.4879 140.336 43.5306 138.363C43.1093 135.6 41.7226 132.72 41.3066 129.6C40.6613 128.096 41.2159 124.875 39.0986 128.277C38.3253 131.877 38.8426 123.856 40.0426 126.501C41.6159 123.803 39.4773 124.123 39.3919 124.496C40.4159 122.219 40.0426 118.992 39.1253 120.224C39.6693 117.813 39.9893 111.344 38.3093 112.491C39.3279 109.968 40.2399 100.944 35.8186 104.384C34.0266 104.411 30.9226 105.035 29.4506 105.765C34.0533 108.304 28.9866 106.683 27.1146 106.277C26.8693 108.624 25.0133 107.611 22.6986 107.632C26.3999 108.091 20.8959 111.419 18.7733 110.128C15.9999 111.445 21.1413 114.736 18.8159 115.755C19.1039 117.291 14.5919 115.2 14.9439 118.741C12.2666 117.616 14.5759 122.944 15.9146 121.141C20.4693 122.373 19.1199 125.184 19.2373 127.856C18.4959 129.413 15.5733 124.197 18.5866 124.443C16.2079 120.581 15.9573 123.045 13.9839 124.843C13.5253 124.971 19.0239 127.397 15.5733 128.592C18.6079 129.061 18.6933 131.717 19.3119 133.397C21.1359 135.296 20.7626 131.301 22.9439 133.584C21.5626 131.547 15.6266 127.851 20.4053 129.035C20.3786 126.987 19.5413 125.333 21.0026 125.376C22.4533 122.752 19.4826 131.851 22.7519 128.512C23.6586 128.117 23.8826 125.883 25.5093 128.725C27.8719 131.051 26.3626 132.731 23.0293 130.603C23.6266 132.624 27.4879 133.349 26.7626 136.512C27.5306 139.296 28.6079 138.267 29.5466 138.107C30.2826 140.811 30.6986 138.821 30.7359 137.536C34.1066 138.256 33.3173 140.251 34.3733 141.643C36.6933 142.693 31.0506 134.539 35.0346 139.189C39.2266 142.976 36.6079 144.555 32.8426 143.952C35.2266 143.76 35.9946 147.173 38.9706 147.051C41.6853 148.341 43.5253 153.307 38.8426 151.243C37.2159 149.776 31.4719 147.973 36.1653 150.757C40.5013 152.768 43.9466 153.968 48.128 156.485C51.12 158.624 52.416 161.072 53.5466 161.552C51.0293 162.752 45.9626 160.592 49.728 159.931C47.3813 159.504 44.7413 158.315 46.9919 161.243C48.9013 162.837 53.76 162.667 54.6346 162.848C53.8986 164.475 52.6293 164.603 54.6666 164.731C52.3946 165.947 55.3973 166.133 55.6053 166.821ZM50.96 153.707C49.5786 152.261 49.2213 149.557 50.7146 151.909C51.4826 152.219 53.168 156.336 50.96 153.707ZM42.1066 139.12C40.4586 135.429 43.2746 137.104 42.4693 139.723L42.1066 139.12ZM26.9439 129.013C26.2079 127.803 24.9919 124.251 25.3813 123.168C25.7386 124.933 29.1359 130.768 27.0506 125.584C24.7466 121.237 29.8079 126.992 30.3306 128.08C30.5706 129.157 28.9066 127.787 30.0373 130.315C27.9786 127.435 28.8213 131.899 26.9439 129.013ZM19.2959 122.587C17.5519 120.853 16.2879 119.253 19.3759 121.509C20.5653 121.557 16.7306 117.877 19.6639 120.341C22.7466 120.907 21.1893 125.397 19.2959 122.587ZM20.3413 119.931C15.2693 115.419 26.7146 122.288 21.1679 120.768L20.3413 119.931ZM34.8693 128.373C32.6773 127.056 34.2879 119.109 35.0346 124.544C37.1679 123.856 34.9173 127.349 36.5066 127.317C36.2613 129.525 35.5466 130.32 34.8693 128.373ZM21.3386 118.448C18.0799 113.952 30.8053 122.992 23.4239 119.589C22.6506 119.387 21.7226 119.317 21.3386 118.448ZM31.6853 123.936C32.3733 124.56 31.3759 120.149 31.6853 123.936ZM21.8346 116.736C23.7706 116.32 29.8559 120.139 24.2666 117.824C23.6479 117.136 22.3253 117.445 21.8346 116.736ZM38.4639 125.019C38.6719 121.147 39.6213 122.709 38.4693 125.573L38.4639 125.019ZM23.2799 115.387C24.0693 114.229 21.1839 110.155 23.6959 113.925C24.7786 114.789 26.8373 115.371 25.0186 115.733C27.8719 118.251 24.3199 116.416 23.2799 115.387ZM34.4319 115.696C35.2693 117.573 34.1866 114.203 34.4319 115.696ZM35.8986 113.312C34.8906 111.536 37.1679 105.493 37.4239 109.243C36.3626 112.16 37.1199 113.797 37.8559 109.877C39.2266 106.8 37.5626 115.963 35.8986 113.312ZM40.0693 156.512C42.9493 157.253 42.9386 156.064 40.3306 155.712C38.9279 154.411 34.5066 153.024 38.4639 155.552C38.7306 156.213 39.5573 156.197 40.0693 156.512ZM29.8346 149.717C31.4239 150.901 35.8133 153.072 32.0959 150.171C33.3493 148.715 29.6959 147.936 30.9066 146.965C27.8239 145.077 28.4746 145.248 30.6346 145.307C26.9279 143.648 31.1679 143.776 30.9706 142.928C29.5413 142.645 23.8719 140.411 27.2106 143.109C23.8186 141.381 26.4053 143.755 25.3759 143.504C21.9093 142.56 28.4639 146.144 24.8266 145.253C26.8159 146.827 30.1813 149.291 25.6693 146.923C25.0719 147.771 28.8959 149.067 29.8346 149.717ZM65.8506 170.832C67.3706 169.36 65.9146 173.179 68.368 170.469C68.3946 168.533 68.2933 167.387 65.5466 169.739C64.7893 170.165 64.448 171.952 65.8506 170.832ZM40.9546 154.848C42.6453 156.352 48.72 155.952 43.008 155.035C42.16 153.787 37.6319 154.085 40.9546 154.848ZM70.1866 172.293C73.0666 169.243 67.392 172.475 70.1866 172.293ZM13.0986 136.139C10.6399 132.635 11.5733 131.056 9.19995 128.197C8.75195 126.011 5.13595 121.04 7.32795 126.304C9.33861 129.381 9.93595 134.144 13.0986 136.139ZM72.4853 171.829C75.0559 170.171 71.8933 170.427 72.0213 171.984L72.4853 171.829ZM76.608 172.949C79.904 170.571 74.6133 172.496 75.9146 173.397L76.608 172.949ZM21.3386 137.717C23.7546 138.256 30.9919 143.664 26.7199 138.091C24.5333 137.445 25.8453 132.101 23.6159 133.045C25.1146 135.547 24.8479 136.608 21.7066 135.035C17.7546 133.104 19.4879 135.989 20.2613 136.784C19.1999 137.024 21.6479 137.701 21.3386 137.717ZM10.3359 129.029C10.7679 127.243 6.35728 119.189 8.25061 124.997C8.93328 126.213 8.86395 128.517 10.3359 129.029ZM60.128 158.923C59.6213 157.627 58.128 158.891 60.128 158.923ZM85.8826 170.731C88.272 170.245 93.7173 171.947 94.5973 170.096C91.6959 170.027 84.5546 168.048 84.2186 170.565L84.8533 170.667L85.8826 170.731ZM11.4346 118.757C13.8453 117.808 7.04528 116.8 10.9439 118.576L11.4346 118.757ZM3.90928 110.336C3.47195 107.84 3.53061 103.456 7.70128 104.939C2.13861 106.043 11.5519 111.851 10.3626 107.264C12.6986 107.376 14.9386 105.883 13.7119 108.155C18.3199 107.648 21.5146 103.648 25.9626 104.208C29.4293 103.749 33.2213 103.403 36.9546 102.005C40.0266 101.787 42.9813 98.4747 41.3013 96.5173C37.1146 96.1653 32.7253 96.688 28.0959 97.6053C22.9653 98.672 18.3039 100.699 13.1306 101.568C8.08528 102.245 14.1439 103.435 12.6986 103.701C10.0639 104.613 15.8399 105.232 12.3573 106.192C10.2079 105.781 7.96795 105.045 8.88528 102.779C4.05328 103.408 -0.197386 105.413 3.62128 110.331L3.90928 110.336ZM15.5573 104.405C16.6879 100.229 21.6266 107.84 17.4133 104.96C16.9119 104.581 16.0799 104.277 15.5573 104.405ZM17.8506 102.416C17.9999 100.496 22.6026 103.435 18.6079 103.109L17.8506 102.416ZM21.4186 100.784C23.1466 98.7093 31.1999 99.4613 25.3066 100.581C23.7279 99.392 22.5173 101.285 21.4186 100.784ZM34.9173 99.1467C36.0053 96.288 39.1519 98 35.4239 98.5707C35.5039 98.88 35.3119 100.048 34.9173 99.1467ZM10.8426 114.304C14.1013 112.309 7.38128 112.571 10.8426 114.304ZM105.056 170.768C107.659 170.779 112.944 169.957 107.28 169.963C106.389 170.101 102.101 170.075 105.056 170.768ZM15.3706 113.803C17.4773 113.659 18.6666 111.477 14.9653 111.605C9.22661 111.013 20.0319 113.573 14.2293 112.837C13.4453 113.355 15.3226 113.941 15.3706 113.803ZM12.4213 97.1573C16.1813 95.8773 21.3226 94.4427 23.0986 97.7867C21.2906 95.6107 22.3679 93.472 24.0746 96.6507C26.4853 99.8667 27.6959 95.1893 26.1279 94.1067C27.9146 96.3307 29.9519 97.3813 27.3279 94.2453C30.1813 90.816 21.6159 94.6933 19.6693 94.656C18.7253 95.0827 9.99461 96.8907 12.4213 97.1573ZM14.6239 92.9387C16.7679 91.3227 22.0426 93.904 18.6559 91.328C18.3253 91.04 11.2479 93.28 14.6239 92.9387ZM22.4426 93.264C24.9546 93.328 21.3599 89.8933 24.3519 91.4507C23.8613 89.8453 20.8693 89.5467 19.4079 88.9067C18.5759 90.368 21.0879 93.28 22.4426 93.264ZM19.1893 86.928C23.2319 86.3893 18.1599 85.184 18.3733 86.8853L19.1893 86.928ZM13.2213 82.2613C10.3733 78.544 18.5759 82.8853 15.6853 78.992C13.2479 77.056 10.9119 81.1787 13.2213 82.2613ZM49.7706 101.947C51.0773 99.632 44.3786 98.8267 48.8906 101.125C49.3013 101.264 49.2106 102.107 49.7706 101.947Z" fill="white"/>
<path d="M111.419 85.9788C110.949 87.8188 110.661 90.9121 110.555 95.2534C110.555 96.1068 110.171 96.5334 109.403 96.5334C108.635 96.5334 108.096 96.1601 107.797 95.4188C106.971 93.4134 106.192 92.0108 105.445 91.2161C104.565 90.2828 103.397 89.7174 101.941 89.5254C100.373 89.2801 96.4747 89.1521 90.2347 89.1521C88.8054 89.1521 87.8721 89.3014 87.4294 89.6054C87.1521 89.7974 87.0187 90.2081 87.0187 90.8428V109.52C87.0187 110.155 87.4187 110.453 88.2134 110.427C90.6614 110.4 94.2027 110.235 98.8481 109.931C99.7547 109.819 100.368 109.525 100.683 109.045C100.997 108.565 101.307 107.323 101.611 105.312C101.803 104.213 102.448 103.787 103.547 104.032C104.48 104.224 104.88 104.651 104.741 105.312C103.973 109.051 103.723 113.915 104 119.904C104.027 120.619 103.573 121.003 102.64 121.056C101.872 121.136 101.392 120.725 101.195 119.819C100.48 116.384 99.1521 114.549 97.2161 114.315C95.2801 114.08 92.1227 113.963 87.7547 113.963C87.2587 113.963 87.0134 114.144 87.0134 114.496V133.045C87.0134 134.421 87.5201 135.355 88.5387 135.851C89.3334 136.261 91.056 136.635 93.6907 136.965C95.0347 137.104 95.6267 137.696 95.4614 138.736C95.2961 139.643 94.0854 140 91.8347 139.808C85.3227 139.285 79.9467 139.312 75.7174 139.888C74.5334 140.053 73.9467 139.573 73.9467 138.443C73.9467 137.728 74.5387 137.317 75.7174 137.205C78.4107 136.901 79.7601 134.539 79.7601 130.112V94.8214C79.7601 93.0081 79.4347 91.6108 78.7894 90.6348C78.1441 89.6588 76.9387 88.7734 75.1841 87.9734C74.0854 87.4774 73.6747 86.8054 73.9467 85.9521C74.0854 85.4294 74.3041 85.1414 74.6081 85.0881C74.8854 85.0081 75.6107 85.0614 76.7947 85.2534C78.5281 85.5308 82.6081 85.6641 89.0401 85.6641C96.6241 85.6641 103.179 85.4988 108.704 85.1681C110.544 85.0561 111.467 85.2108 111.467 85.6214C111.456 85.7601 111.445 85.8668 111.419 85.9788Z" fill="white"/>
<path d="M138.213 138.373C138.213 139.472 137.595 139.952 136.357 139.819C132.565 139.461 127.867 139.515 122.256 139.984C121.131 140.096 120.437 140.064 120.176 139.904C119.915 139.739 119.787 139.285 119.787 138.544C119.787 137.883 120.533 137.328 122.032 136.875C123.531 136.421 124.277 135.067 124.277 132.816V95.5093C124.277 93.2853 123.952 91.6479 123.307 90.6026C122.661 89.5573 121.525 88.7466 119.904 88.1706C119.051 87.8666 118.624 87.4399 118.624 86.8906C118.624 86.0639 119.243 85.4452 120.48 85.0346C122.347 84.4319 124.288 83.4932 126.293 82.2292C127.941 81.2372 128.987 80.7466 129.424 80.7466C130.443 80.7466 130.949 81.4452 130.949 82.8479C130.949 82.7359 130.896 84.1119 130.784 86.9706C130.704 89.6906 130.672 92.3732 130.704 95.0079L130.869 131.824C130.869 133.499 131.28 134.715 132.107 135.472C132.933 136.229 134.347 136.731 136.352 136.976C137.595 137.109 138.213 137.579 138.213 138.373Z" fill="white"/>
<path d="M175.808 135.61C175.808 136.186 174.757 137.061 172.656 138.229C170.555 139.397 168.869 139.984 167.605 139.984C166.533 139.984 165.584 139.461 164.763 138.416C163.936 137.37 163.36 136.848 163.029 136.848C162.784 136.848 161.477 137.413 159.115 138.538C156.752 139.664 154.373 140.229 151.984 140.229C149.728 140.229 147.845 139.568 146.336 138.25C144.688 136.794 143.861 134.816 143.861 132.314C143.861 127.562 149.301 124.154 160.187 122.09C162.053 121.733 163.003 120.976 163.029 119.824L163.109 117.184C163.275 112.677 161.28 110.421 157.131 110.421C155.947 110.421 154.827 111.477 153.771 113.594C152.715 115.712 151.195 116.853 149.216 117.018C146.96 117.237 145.835 116.288 145.835 114.176C145.835 112.858 147.509 111.317 150.864 109.557C154.384 107.717 157.76 106.794 161.003 106.794C166.581 106.794 169.344 109.445 169.291 114.752L169.125 131.738C169.099 133.525 169.856 134.416 171.392 134.416C171.696 134.416 172.272 134.346 173.125 134.208C173.979 134.069 174.469 134 174.608 134C175.413 134.005 175.808 134.538 175.808 135.61ZM163.115 126.213C163.141 125.525 162.987 125.072 162.64 124.853C162.299 124.634 161.755 124.592 161.013 124.73C154.389 125.914 151.077 128.069 151.077 131.205C151.077 134.368 152.795 135.946 156.229 135.946C157.605 135.946 159.019 135.685 160.475 135.162C162.176 134.56 163.029 133.829 163.029 132.976L163.115 126.213Z" fill="white"/>
<path d="M206.565 130.704C206.565 133.616 205.445 135.931 203.205 137.648C200.965 139.365 197.909 140.224 194.032 140.224C191.451 140.224 188.864 139.947 186.283 139.397C184.059 138.901 182.763 138.448 182.405 138.037C182.187 137.653 182.075 135.771 182.075 132.389C182.075 130.933 182.405 130.176 183.067 130.123C183.728 130.043 184.288 130.4 184.757 131.195C186.816 134.795 190.144 136.597 194.736 136.597C198.613 136.597 200.549 135.248 200.549 132.555C200.549 131.371 200.112 130.384 199.232 129.584C198.272 128.677 196.4 127.621 193.627 126.411C189.616 124.624 186.933 123.056 185.589 121.712C184.133 120.283 183.403 118.357 183.403 115.941C183.403 112.971 184.544 110.667 186.827 109.013C188.944 107.419 191.776 106.624 195.317 106.624C197.541 106.624 199.579 106.805 201.419 107.157C203.397 107.515 204.427 107.952 204.512 108.475C204.731 110.016 205.184 112.24 205.872 115.152C205.952 115.509 205.568 115.797 204.72 116.016C203.813 116.208 203.211 116.059 202.907 115.563C200.736 112.016 197.989 110.245 194.661 110.245C190.896 110.245 189.013 111.456 189.013 113.872C189.013 115.221 189.52 116.288 190.539 117.088C191.445 117.776 193.573 118.848 196.928 120.304C200.448 121.813 202.837 123.179 204.101 124.384C205.739 125.968 206.565 128.069 206.565 130.704Z" fill="white"/>
<path d="M254.384 148.128C254.384 149.088 253.739 149.6 252.448 149.653C250.523 149.68 248.011 149.818 244.901 150.064C243.36 150.368 242.261 150.176 241.605 149.488C237.264 144.816 233.579 139.925 230.555 134.81C230.309 134.373 229.989 134.149 229.605 134.149C229.136 134.149 228.325 134.56 227.173 135.386C225.883 136.101 225.237 137.12 225.237 138.437C225.237 139.37 225.264 140.72 225.317 142.48C225.371 144.24 225.813 145.392 226.635 145.941C227.211 146.325 228.544 146.629 230.635 146.848C231.925 147.013 232.571 147.493 232.571 148.293C232.571 148.928 232.469 149.317 232.261 149.466C232.053 149.616 231.515 149.653 230.635 149.568C227.888 149.322 223.243 149.456 216.699 149.978C215.051 150.117 214.155 149.909 214.021 149.36C213.968 149.168 213.941 148.89 213.941 148.533C213.941 147.68 214.779 147.034 216.459 146.597C217.968 146.213 218.725 144.437 218.725 141.28V105.253C218.725 102.997 218.507 101.434 218.064 100.554C217.461 99.4291 216.197 98.5491 214.272 97.9145C213.365 97.6105 212.912 97.1838 212.912 96.6345C212.912 95.8398 213.557 95.2211 214.848 94.7785C216.907 94.0905 218.875 93.1411 220.741 91.9358C222.251 90.9438 223.189 90.4531 223.547 90.4531C224.672 90.4531 225.237 91.1678 225.237 92.5971C225.237 92.4051 225.221 93.7651 225.195 96.6771C225.168 98.6825 225.152 101.376 225.152 104.757L225.232 130.565C225.232 131.28 225.424 131.637 225.808 131.637C226.219 131.637 226.853 131.28 227.707 130.565C229.989 128.778 232.789 126.442 236.117 123.557C236.779 122.869 237.109 122.32 237.109 121.909C237.109 121.168 235.995 120.645 233.771 120.341C232.811 120.229 232.357 119.696 232.411 118.736C232.491 117.776 232.976 117.36 233.856 117.498C235.835 117.776 238.72 117.925 242.512 117.952C245.152 117.978 247.776 117.994 250.384 117.994C251.237 118.021 251.664 118.528 251.664 119.52C251.664 120.453 250.992 120.965 249.643 121.045C247.525 121.125 245.536 121.61 243.664 122.49C241.051 123.674 238.261 125.749 235.296 128.714C235.077 128.88 234.965 129.088 234.965 129.333C234.965 129.717 235.435 130.64 236.368 132.096C239.803 137.317 243.045 141.264 246.096 143.925C248.048 145.6 249.877 146.442 251.579 146.442C252.843 146.442 253.627 146.533 253.931 146.709C254.235 146.885 254.384 147.36 254.384 148.128Z" fill="white"/>
</g>
<defs>
<clipPath id="clip0_5_41">
<rect width="256" height="256" fill="white"/>
</clipPath>
</defs>
</svg>
