<svg width="256" height="256" viewBox="0 0 256 256" fill="none" xmlns="http://www.w3.org/2000/svg">
<path d="M101.195 168C101.195 172.416 97.616 176 93.1947 176C88.7734 176 85.1947 172.416 85.1947 168V93.3335C85.1947 89.8508 87.4507 86.7682 90.768 85.7068C94.1014 84.6508 97.712 85.8668 99.7227 88.7095L189.2 215.131C216.624 195.781 234.667 163.92 234.667 128C234.667 69.3335 186.667 21.3335 128 21.3335C69.3334 21.3335 21.3334 69.3335 21.3334 128C21.3334 186.667 69.3334 234.667 128 234.667C145.024 234.667 161.099 230.523 175.413 223.349L101.195 118.485V168ZM154.528 88.0002C154.528 83.5842 158.107 80.0002 162.528 80.0002C166.949 80.0002 170.528 83.5842 170.528 88.0002V161.813L154.528 139.269V88.0002Z" fill="white"/>
</svg>
