<svg width="649" height="799" viewBox="0 0 649 799" fill="none" xmlns="http://www.w3.org/2000/svg">
<path d="M543.671 117.089C552.759 117.089 560.127 109.721 560.127 100.633C560.127 91.5447 552.759 84.1772 543.671 84.1772C534.583 84.1772 527.215 91.5447 527.215 100.633C527.215 109.721 534.583 117.089 543.671 117.089ZM564.557 258.861C564.557 258.861 543.671 153.797 406.962 182.278C393.038 134.81 395.57 100 425.949 67.7215C467.089 24.0506 531.646 48.1013 531.646 48.1013V12.0253C508.861 1.89873 487.342 0 463.291 0C375.316 0 326.582 65.8228 305.696 110.127L58.2278 565.19L127.848 551.899L0 798.734L89.2405 782.911L157.595 588.608C351.266 588.608 599.367 518.987 564.557 258.861ZM648.101 170.886L593.671 118.354L550.633 170.886H648.101ZM189.873 532.278C189.873 532.278 196.203 531.013 207.595 528.481C218.987 525.949 234.81 522.152 253.797 517.089C263.291 514.557 273.418 511.392 284.177 507.595C294.937 503.797 306.329 500 317.089 494.937C328.481 490.506 339.873 484.81 351.266 478.481C362.658 472.152 373.418 465.19 383.544 456.962C386.076 455.063 388.608 453.165 391.139 450.633L398.734 444.304C403.165 439.873 408.228 435.443 412.658 430.38C417.089 425.949 420.886 420.886 424.684 415.823C426.582 413.291 428.481 410.759 430.38 408.228L432.911 404.43L435.443 400.633C436.709 398.101 438.608 395.57 439.873 393.038C441.139 390.506 442.405 387.975 444.304 385.443C444.937 384.177 445.57 382.911 446.203 381.646C446.835 380.38 447.468 379.114 448.101 377.848C449.367 375.316 450.633 372.785 451.266 370.253C453.165 365.19 455.063 360.127 456.962 355.063C458.228 350 460.127 344.937 461.392 340.506C462.658 336.076 463.291 331.013 464.557 327.215C465.19 322.785 465.823 318.987 466.456 314.557C467.089 310.759 467.722 306.962 467.722 303.797C468.354 300.633 468.354 297.468 468.987 294.304C469.62 282.911 469.62 276.582 469.62 276.582L479.747 277.215C479.747 277.215 479.114 284.177 478.481 295.57C477.848 298.734 477.848 301.899 477.215 305.063C476.582 308.861 476.582 312.658 475.316 316.456C474.684 320.253 473.418 324.684 472.785 329.114C471.519 333.544 470.253 337.975 468.987 343.038C467.722 348.101 465.823 352.532 463.924 358.228C462.025 363.291 460.127 368.354 457.595 374.051C456.329 376.582 455.063 379.114 453.797 381.646C453.165 382.911 452.532 384.177 451.899 385.443C451.266 386.709 450.633 387.975 450 389.241C448.734 391.772 446.835 394.304 445.57 397.468C443.671 400 442.405 402.532 440.506 405.063C439.873 406.329 438.608 407.595 437.975 408.861L435.443 412.658C433.544 415.19 431.646 417.722 429.747 420.253C425.316 425.316 421.519 430.38 416.456 434.81C412.025 439.873 406.962 443.671 401.899 448.734L394.304 455.063C391.772 456.962 389.241 458.861 386.076 460.759C375.316 468.354 363.924 475.316 352.532 481.646C341.139 487.342 329.114 493.038 317.722 497.468C306.329 501.899 294.937 505.696 284.177 508.861C273.418 512.025 263.291 515.19 253.165 517.089C234.177 521.519 217.722 525.316 206.329 527.215C196.203 531.013 189.873 532.278 189.873 532.278Z" fill="white" fill-opacity="0.7"/>
</svg>
